<svg xmlns="http://www.w3.org/2000/svg"  viewBox="0 0 100 100" width="100px" height="100px" baseProfile="basic"><path fill="#ffa340" d="M48.046,63.047l-3.033,6.95c-1.166,2.671-4.861,2.671-6.026,0l-3.033-6.95	c-2.699-6.185-7.557-11.108-13.616-13.799l-8.348-3.707c-2.654-1.179-2.654-5.042,0-6.22l8.087-3.592	c6.215-2.76,11.16-7.866,13.813-14.261l3.072-7.406c1.14-2.748,4.935-2.748,6.075,0l3.072,7.406	c2.653,6.396,7.598,11.501,13.813,14.261l8.087,3.592c2.654,1.179,2.654,5.042,0,6.22l-8.348,3.707	C55.603,51.939,50.745,56.862,48.046,63.047z"/><path fill="#fd86ae" d="M70.01,39.32l-8.087-3.592c-6.215-2.76-11.16-7.866-13.813-14.261l-3.072-7.406	c-1.14-2.748-4.935-2.748-6.075,0l-3.072,7.406c-2.568,6.191-7.296,11.153-13.233,13.969c-0.266,2.152-0.419,4.339-0.419,6.563	c0,2.535,0.19,5.026,0.534,7.466c5.853,2.731,10.549,7.548,13.182,13.581l3.033,6.95c1.166,2.671,4.86,2.671,6.026,0l3.033-6.95	c2.699-6.185,7.557-11.108,13.616-13.799l8.348-3.707C72.664,44.362,72.664,40.499,70.01,39.32z"/><path fill="#fd86ae" d="M76.497,84.935l-0.863,1.979c-0.632,1.449-2.636,1.449-3.268,0l-0.863-1.979	c-1.538-3.528-4.309-6.337-7.766-7.874l-2.659-1.182c-1.438-0.639-1.438-2.73,0-3.369l2.51-1.116	c3.546-1.576,6.366-4.489,7.878-8.138l0.886-2.138c0.618-1.49,2.677-1.49,3.295,0l0.886,2.138c1.512,3.648,4.332,6.561,7.878,8.138	l2.51,1.116c1.438,0.639,1.438,2.73,0,3.369l-2.659,1.182C80.806,78.597,78.035,81.406,76.497,84.935z"/><path fill="#6b96d6" d="M70.01,39.32l-8.087-3.592c-5.238-2.326-9.554-6.331-12.376-11.356	C45.814,29.265,43.594,35.372,43.594,42c0,6.733,2.294,12.927,6.134,17.857c2.825-4.676,6.964-8.401,11.935-10.609l8.348-3.707	C72.664,44.362,72.664,40.499,70.01,39.32z"/><circle cx="51.35" cy="41.796" r="4.796" fill="#fff"/><circle cx="51.35" cy="41.796" r="2.18" fill="#4a254b"/><path fill="#4a254b" d="M41.323,51.823c2.238,0,4.082-1.686,4.331-3.857c0.031-0.265-0.164-0.502-0.431-0.502	c-1.508,0-6.292,0-7.799,0c-0.267,0-0.461,0.237-0.431,0.502C37.24,50.137,39.085,51.823,41.323,51.823z"/><circle cx="31.296" cy="41.796" r="4.796" fill="#fff"/><circle cx="31.296" cy="41.796" r="2.18" fill="#4a254b"/><path fill="#6b96d6" d="M79.427,67.78c-1.203-1.314-2.193-2.836-2.893-4.524l-0.886-2.138c-0.618-1.49-2.677-1.49-3.295,0	l-0.886,2.138c-1.512,3.648-4.332,6.561-7.878,8.138l-2.51,1.116c-1.438,0.639-1.438,2.73,0,3.369l2.659,1.182	c1.386,0.616,2.654,1.444,3.784,2.433C73.348,78.102,77.941,73.571,79.427,67.78z"/></svg>